<?xml version="1.0" encoding="UTF-8"?>
<svg width="30px" height="30px" viewBox="0 0 30 30" version="1.1" xmlns="http://www.w3.org/2000/svg" xmlns:xlink="http://www.w3.org/1999/xlink">
    <title>icon_loading</title>
    <g id="页面-1" stroke="none" stroke-width="1" fill="none" fill-rule="evenodd">
        <g id="注册" transform="translate(-220.000000, -462.000000)" fill="">
            <path d="M235,462 L235,466 L235,466 C228.924868,466 224,470.924868 224,477 C224,483.075132 228.924868,488 235,488 C241.075132,488 246,483.075132 246,477 C246,474.786747 245.34635,472.726162 244.221565,471.00076 L248.751918,471.000113 C249.554676,472.83747 250,474.86673 250,477 C250,485.284271 243.284271,492 235,492 C226.715729,492 220,485.284271 220,477 C220,468.715729 226.715729,462 235,462 Z" id="icon_loading"></path>
        </g>
    </g>
</svg>