<?xml version="1.0" encoding="UTF-8"?>
<svg width="14px" height="14px" viewBox="0 0 14 14" version="1.1" xmlns="http://www.w3.org/2000/svg" xmlns:xlink="http://www.w3.org/1999/xlink">
    <!-- Generator: Sketch 53.2 (72643) - https://sketchapp.com -->
    <title>ico-full-nor</title>
    <desc>Created with Sketch.</desc>
    <g id="1.9" stroke="none" stroke-width="1" fill="none" fill-rule="evenodd">
        <g id="ico-full-nor" fill="#9CA3B9" fill-rule="nonzero">
            <path d="M4.48125,5.8359375 L5.8328125,4.484375 L2.9046875,1.5578125 L4.4578125,0.0046875 L0,0.0046875 L0,4.4625 L1.553125,2.909375 L4.48125,5.8359375 Z M9.59375,5.7375 L12.4703125,2.859375 L13.996875,4.3859375 L13.996875,0.0046875 L9.615625,0.0046875 L11.1421875,1.53125 L8.265625,4.409375 L9.59375,5.7375 Z M4.571875,8.3984375 L1.584375,11.2078125 L0,9.715625 L0,13.9953125 L4.5484375,13.9953125 L2.9640625,12.5046875 L5.95,9.6953125 L4.571875,8.3984375 Z M12.4421875,11.2546875 L9.50625,8.49375 L8.1515625,9.76875 L11.0875,12.53125 L9.5296875,13.996875 L14,13.996875 L14,9.7890625 L12.4421875,11.2546875 Z" id="Shape"></path>
        </g>
    </g>
</svg>