<svg xmlns="http://www.w3.org/2000/svg" width="20" height="20" viewBox="0 0 20 20">
    <g fill="none" fill-rule="evenodd">
        <g fill-rule="nonzero">
            <path fill="#26A17B" d="M0 10c0 5.523 4.477 10 10 10s10-4.477 10-10S15.523 0 10 0 0 4.477 0 10z"/>
            <path fill="#FFF" d="M11.022 11.499v-.002c-.075.006-.46.029-1.32.029-.686 0-1.169-.02-1.339-.029v.002c-2.642-.116-4.614-.576-4.614-1.126 0-.55 1.972-1.01 4.614-1.128v1.796c.173.013.667.042 1.351.042.82 0 1.231-.034 1.308-.041V9.246c2.636.118 4.604.578 4.604 1.127 0 .55-1.968 1.009-4.604 1.126m0-2.44V7.452h3.679V5H4.684v2.452h3.68v1.607c-2.99.137-5.239.73-5.239 1.439 0 .71 2.248 1.301 5.238 1.439v5.152h2.659v-5.153c2.985-.138 5.228-.73 5.228-1.438 0-.709-2.243-1.3-5.228-1.439"/>
        </g>
        <path fill="#F80" d="M13.25 11.875H18c1.105 0 2 .895 2 2V20h-6.75c-1.105 0-2-.895-2-2v-4.125c0-1.105.895-2 2-2z"/>
        <path fill="#FFF" fill-rule="nonzero" d="M4.053 2.962L2.699 2.962 3.153 0 0 3.873 1.573 3.873 1.126 6.835 4.053 2.962z" transform="translate(13.125 12.5)"/>
    </g>
</svg>
