<?xml version="1.0" encoding="UTF-8"?>
<svg width="24px" height="24px" viewBox="0 0 24 24" version="1.1" xmlns="http://www.w3.org/2000/svg" xmlns:xlink="http://www.w3.org/1999/xlink">
    <title>icon_home_kf_nor</title>
    <g id="页面-1" stroke="none" stroke-width="1" fill="none" fill-rule="evenodd">
        <g id="2.6BitMoken移动端-首页" transform="translate(-333.000000, -30.000000)">
            <g id="编组-11" transform="translate(333.000000, 30.000000)">
                <g id="编组-10">
                    <rect id="矩形" fill-opacity="0" fill="#FFFFFF" x="0" y="0" width="24" height="24"></rect>
                    <g id="客服中心" transform="translate(3.500000, 3.000000)" fill-rule="nonzero">
                        <path d="M11.4313616,11.9047619 C11.4313616,11.3787764 11.8577571,10.952381 12.3837426,10.952381 C12.909728,10.952381 13.3361235,11.3787764 13.3361235,11.9047619 L13.3361235,15.7152381 C13.3361235,17.817619 11.6280283,19.5238095 9.52659971,19.5238095 C9.00061423,19.5238095 8.57421875,19.0974141 8.57421875,18.5714286 C8.57421875,18.0454431 9.00061423,17.6190476 9.52659971,17.6190476 C10.5765997,17.6190476 11.4313616,16.7652381 11.4313616,15.7152381 L11.4313616,11.9047619 L11.4313616,11.9047619 Z" id="路径" fill="#2ACCA6"></path>
                        <path d="M1.90755209,8.57142857 C1.90755209,4.88952381 4.892314,1.90476191 8.57421875,1.90476191 C12.2561235,1.90476191 15.2408854,4.88952383 15.2408854,8.57142857 L17.1456473,8.57142857 C17.1456473,3.83761904 13.3080283,0 8.57421875,0 C3.84040922,0 0.00279017578,3.83761904 0.00279017578,8.57142857 L1.90755209,8.57142857 Z M1.90755209,8.57142857 C1.90755209,4.88952381 4.892314,1.90476191 8.57421875,1.90476191 C12.2561235,1.90476191 15.2408854,4.88952383 15.2408854,8.57142857 L17.1456473,8.57142857 C17.1456473,3.83761904 13.3080283,0 8.57421875,0 C3.84040922,0 0.00279017578,3.83761904 0.00279017578,8.57142857 L1.90755209,8.57142857 Z" id="形状" fill="#D5E0EF"></path>
                        <path d="M13.3361235,8.57571428 L13.3361235,12.3766667 C13.3361235,12.3795238 13.3375521,12.3809524 13.3351711,12.3809524 L15.2418378,12.3809524 C15.2418378,12.3809524 15.2408854,12.3819048 15.2408854,12.3766667 L15.2408854,8.57619047 C15.2408854,8.57333332 15.2394568,8.57190475 15.2418378,8.57190477 L13.3351711,8.57190477 C13.3351711,8.57190477 13.3361235,8.57095238 13.3361235,8.57619047 L13.3361235,8.57571428 Z M11.4313544,8.57571428 C11.4299699,8.06988564 11.6299347,7.58429748 11.9871192,7.22613023 C12.3443037,6.86796298 12.8293406,6.66666666 13.3351711,6.66666666 L15.2418378,6.66666666 C16.2942187,6.66666666 17.1456545,7.52380953 17.1456545,8.57571428 L17.1456545,12.3766667 C17.1470391,12.8824953 16.9470743,13.3680835 16.5898898,13.7262507 C16.2327053,14.084418 15.7476683,14.2857143 15.2418378,14.2857143 L13.3351711,14.2857143 C12.2827902,14.2857143 11.4313544,13.4285714 11.4313544,12.3766667 L11.4313544,8.57619047 L11.4313544,8.57571428 Z M1.90755209,8.57571428 L1.90755209,12.3766667 C1.90755209,12.3795238 1.90898066,12.3809524 1.90659971,12.3809524 L3.81326637,12.3809524 C3.81326637,12.3809524 3.81231398,12.3819048 3.81231398,12.3766667 L3.81231398,8.57619047 C3.81231398,8.57333332 3.81088541,8.57190475 3.81326637,8.57190477 L1.90659971,8.57190477 C1.90659971,8.57190477 1.90755209,8.57095238 1.90755209,8.57619047 L1.90755209,8.57571428 Z M0.0027829595,8.57571428 C0.00139844838,8.06988564 0.201363244,7.58429748 0.558547745,7.22613023 C0.915732245,6.86796298 1.40076916,6.66666666 1.90659971,6.66666666 L3.81326637,6.66666666 C4.86564732,6.66666666 5.71708311,7.52380953 5.71708311,8.57571428 L5.71708311,12.3766667 C5.71846763,12.8824953 5.51850283,13.3680835 5.16131833,13.7262507 C4.80413383,14.084418 4.31909692,14.2857143 3.81326637,14.2857143 L1.90659971,14.2857143 C0.85421875,14.2857143 0.0027829595,13.4285714 0.0027829595,12.3766667 L0.0027829595,8.57619047 L0.0027829595,8.57571428 Z" id="形状" fill="#D5E0EF"></path>
                    </g>
                </g>
            </g>
        </g>
    </g>
</svg>
