<?xml version="1.0" encoding="UTF-8"?>
<svg width="22px" height="22px" viewBox="0 0 22 22" version="1.1" xmlns="http://www.w3.org/2000/svg" xmlns:xlink="http://www.w3.org/1999/xlink">
    <title>tab_me_nor</title>
    <g id="tab_me_nor" stroke="none" stroke-width="1" fill="none" fill-rule="evenodd">
        <g id="编组-16备份">
            <rect id="矩形" fill="#171E29" opacity="0" x="0" y="0" width="22" height="22"></rect>
            <path d="M16,6.5 C16,9.26142857 13.7614286,11.5 11,11.5 C8.23857143,11.5 6,9.26142857 6,6.5 C6,3.73857143 8.23857143,1.5 11,1.5 C13.7614286,1.5 16,3.73857143 16,6.5" id="Fill-37" fill="#E2E2E2"></path>
            <path d="M17.9999231,21 C19.0612308,21 19.9300769,20.2308462 19.9903077,19.2526154 C19.9965385,19.1432308 20,19.0338462 20,18.9230769 C20,15.0994615 15.9707692,12 11,12 C6.02923077,12 2,15.0994615 2,18.9230769 C2,19.0338462 2.00346154,19.1432308 2.01038462,19.2526154 C2.06992308,20.2308462 2.93946154,21 4.00007692,21 L17.9999231,21 Z" id="Fill-39" fill="#818283"></path>
        </g>
    </g>
</svg>