<?xml version="1.0" encoding="UTF-8"?>
<svg width="22px" height="22px" viewBox="0 0 22 22" version="1.1" xmlns="http://www.w3.org/2000/svg" xmlns:xlink="http://www.w3.org/1999/xlink">
    <title>tab_new_nor</title>
    <g id="tab_new_nor" stroke="none" stroke-width="1" fill="none" fill-rule="evenodd">
        <g id="编组-18备份">
            <rect id="矩形" fill="#171E29" opacity="0" x="0" y="0" width="22" height="22"></rect>
            <g id="新闻-" transform="translate(1.500000, 2.500000)" fill-rule="nonzero">
                <path d="M1.81283763,4.30860192 C0.86385627,4.30860192 0.0945548771,5.07790331 0.0945548771,6.02688468 L0.0945548771,14.8481223 L0.0945548771,14.8481223 C0.0945548771,15.8002867 0.860660275,16.5663921 1.81282466,16.5663921 C2.76498904,16.5663921 3.53112038,15.789339 3.53112038,14.8481223 L3.53112038,6.02688468 C3.53112038,5.07790331 2.76181899,4.30860192 1.81283763,4.30860192 Z" id="路径" fill="#E2E2E2"></path>
                <path d="M4.50518017,2.35360543 L4.50518017,14.8371746 L4.50518017,14.8371746 C4.50518017,16.3256205 3.30129655,17.5295041 1.8128506,17.5295041 L16.5221988,17.5295041 C18.0106447,17.5295041 19.2145283,16.3256205 19.2145283,14.8371746 L19.2145283,2.35360543 C19.2145283,1.24903593 18.3190978,0.353605426 17.2145283,0.353605426 L6.50518017,0.353605426 C5.40061067,0.353605426 4.50518017,1.24903593 4.50518017,2.35360543 Z M15.7889105,13.1633279 L7.94174567,13.1633279 C7.66813104,13.1633279 7.4492549,12.8299682 7.4492549,12.4133279 C7.4492549,11.9966876 7.66815699,11.6633279 7.94174567,11.6633279 L15.7889105,11.6633279 C16.0625252,11.6633279 16.2814013,11.9966876 16.2814013,12.4133279 C16.2814013,12.8299682 16.0624992,13.1633279 15.7889105,13.1633279 Z M15.7889105,9.96753392 L7.94174567,9.96753392 C7.66813104,9.96753392 7.4492549,9.63417425 7.4492549,9.21753392 C7.4492549,8.80089359 7.66815699,8.46753392 7.94174567,8.46753392 L15.7889105,8.46753392 C16.0625252,8.46753392 16.2814013,8.80089359 16.2814013,9.21753392 C16.2814013,9.63417425 16.0624992,9.96753392 15.7889105,9.96753392 Z M15.7889105,6.78268764 L7.94174567,6.78268764 C7.66813104,6.78268764 7.4492549,6.44932797 7.4492549,6.03268764 C7.4492549,5.61604732 7.66815699,5.28268764 7.94174567,5.28268764 L15.7889105,5.28268764 C16.0625252,5.28268764 16.2814013,5.61604732 16.2814013,6.03268764 C16.2814013,6.44932797 16.0624992,6.78268764 15.7889105,6.78268764 Z" id="形状" fill="#818283"></path>
            </g>
        </g>
    </g>
</svg>