<?xml version="1.0" encoding="UTF-8"?>
<svg width="22px" height="22px" viewBox="0 0 22 22" version="1.1" xmlns="http://www.w3.org/2000/svg" xmlns:xlink="http://www.w3.org/1999/xlink">
    <title>tab_home_sell</title>
    <g id="tab_home_sell" stroke="none" stroke-width="1" fill="none" fill-rule="evenodd">
        <g id="编组-6">
            <rect id="矩形" fill="#FFFFFF" opacity="0" x="0" y="0" width="22" height="22"></rect>
            <path d="M9.96194981,1.38839632 L1.92824984,8.64846115 C1.35725005,9.16489433 1.35725005,10.0020447 1.92824984,10.5184778 L2.79882601,11.3049134 C2.96557816,11.4556291 3.05942136,11.6606309 3.05942136,11.8734899 L3.05942136,19.6957026 C3.05942136,20.4164234 3.70549572,21 4.50244106,21 L5.22575559,21 C6.02270094,21 6.66877529,20.4164234 6.66877529,19.6957026 L6.66877529,16.6149608 C6.66877529,14.4620845 8.50377083,12.5763534 10.8859444,12.5206386 C13.3301989,12.4634952 15.3312247,14.2370825 15.3312247,16.4335307 L15.3312247,19.6735596 C15.3312247,20.4064233 15.988849,21 16.798788,21 L17.4730153,21 C18.2829544,21 18.9405786,20.4064233 18.9405786,19.6735596 L18.9405786,11.8734899 C18.9405786,11.6606309 19.0344218,11.4556291 19.201174,11.3049134 L20.0717502,10.5184778 C20.6427499,10.0020447 20.6427499,9.16489433 20.0717502,8.64846115 L12.0380502,1.38839632 C11.4648848,0.870534558 10.5351152,0.870534558 9.96194981,1.38839632" id="Fill-1" fill="#00AA84"></path>
            <path d="M7.5,16.8331648 C7.5,15.1136166 8.83214286,13.5744149 10.65,13.4080545 C12.7364286,13.2159303 14.5,14.7610209 14.5,16.6859432 L14.5,19.6536585 C14.5,20.3971276 13.8592857,21 13.0692857,21 L8.93071429,21 C8.14,21 7.5,20.3971276 7.5,19.6536585 L7.5,16.8331648 Z" id="Fill-3" fill="#7ED3C0"></path>
        </g>
    </g>
</svg>