<?xml version="1.0" encoding="UTF-8"?>
<svg width="22px" height="22px" viewBox="0 0 22 22" version="1.1" xmlns="http://www.w3.org/2000/svg" xmlns:xlink="http://www.w3.org/1999/xlink">
    <title>tab_quotes_sell</title>
    <g id="tab_quotes_sell" stroke="none" stroke-width="1" fill="none" fill-rule="evenodd">
        <g id="tab_icon_quotes">
            <rect id="矩形备份-11" fill="#171E29" opacity="0" x="0" y="0" width="22" height="22"></rect>
            <g id="编组-10备份" transform="translate(1.000000, 2.500000)">
                <path d="M2.1,16.1 L2.1,1.05 C2.1,0.4697 1.6303,0 1.05,0 C0.4697,0 0,0.4697 0,1.05 L0,17.073 C0,17.6953 0.5047,18.2 1.127,18.2 L19.25,18.2 C19.8303,18.2 20.3,17.7303 20.3,17.15 C20.3,16.5697 19.8303,16.1 19.25,16.1 L2.1,16.1 Z" id="Fill-9" fill="#00AA84"></path>
                <path d="M6.65,13.3 L6.65,13.3 C6.0697,13.3 5.6,12.8303 5.6,12.25 L5.6,10.15 C5.6,9.5697 6.0697,9.1 6.65,9.1 C7.2303,9.1 7.7,9.5697 7.7,10.15 L7.7,12.25 C7.7,12.8303 7.2303,13.3 6.65,13.3" id="Fill-11" fill="#00AA84"></path>
                <path d="M10.85,13.3 L10.85,13.3 C10.2697,13.3 9.8,12.8303 9.8,12.25 L9.8,8.05 C9.8,7.4697 10.2697,7 10.85,7 C11.4303,7 11.9,7.4697 11.9,8.05 L11.9,12.25 C11.9,12.8303 11.4303,13.3 10.85,13.3" id="Fill-13" fill="#00AA84"></path>
                <path d="M15.05,13.3 L15.05,13.3 C14.4697,13.3 14,12.8303 14,12.25 L14,8.05 C14,7.4697 14.4697,7 15.05,7 C15.6303,7 16.1,7.4697 16.1,8.05 L16.1,12.25 C16.1,12.8303 15.6303,13.3 15.05,13.3" id="Fill-15" fill="#00AA84"></path>
                <path d="M17.0518709,0.862245104 C17.3488647,0.614750248 17.79026,0.654877092 18.0377549,0.95187092 C18.2662117,1.22601907 18.2495944,1.62320752 18.0120923,1.87735266 L17.9481291,1.9377549 L13.7481291,5.4377549 C13.5337907,5.61637021 13.2366942,5.64895724 12.9913792,5.52832909 L12.9117099,5.48243521 L9.1133,2.9505 L4.60686674,6.16961343 C4.31647706,6.37703462 3.92162668,6.33090465 3.68586117,6.07514776 L3.63038657,6.00686674 C3.42296538,5.71647706 3.46909535,5.32162668 3.72485224,5.08586117 L3.79313326,5.03038657 L8.69313326,1.53038657 C8.90349235,1.38013008 9.17695699,1.35940223 9.40508085,1.4699517 L9.48829014,1.51756479 L13.2531,4.0271 L17.0518709,0.862245104 Z" id="Stroke-17" fill="#7ED3C0" fill-rule="nonzero"></path>
            </g>
        </g>
    </g>
</svg>