<?xml version="1.0" encoding="UTF-8"?>
<svg width="22px" height="22px" viewBox="0 0 22 22" version="1.1" xmlns="http://www.w3.org/2000/svg" xmlns:xlink="http://www.w3.org/1999/xlink">
    <title>tab_jiaoyi_sell</title>
    <g id="tab_jiaoyi_sell" stroke="none" stroke-width="1" fill="none" fill-rule="evenodd">
        <g id="编组-15备份">
            <rect id="矩形" fill="#171E29" opacity="0" x="0" y="0" width="22" height="22"></rect>
            <g id="编组-14" transform="translate(2.500000, 2.000000)">
                <path d="M6,9 C6,10.65675 4.65675,12 3,12 C1.34325,12 0,10.65675 0,9 C0,7.34325 1.34325,6 3,6 C4.65675,6 6,7.34325 6,9" id="Fill-29" fill="#7ED3C0"></path>
                <path d="M17,9 C17,10.65675 15.65675,12 14,12 C12.34325,12 11,10.65675 11,9 C11,7.34325 12.34325,6 14,6 C15.65675,6 17,7.34325 17,9" id="Fill-31" fill="#7ED3C0"></path>
                <path d="M8.54988051,16.4 C7.55802023,16.4 6.6101468,16.2266667 5.73845974,15.9117333 L7.11240185,14 L2.76575387,14 L0.599761019,14 L0.5,14 L0.658122653,14.0776 C2.3592349,16.4408 5.25661689,18 8.54988051,18 C11.8799436,18 14.8072251,16.4074667 16.5,14 L14.3340072,14 C12.9129157,15.4725333 10.8484089,16.4 8.54988051,16.4" id="Fill-33" fill="#00AA84"></path>
                <path d="M16.3358399,3.9144 C14.6341527,1.55573333 11.7396457,0 8.45011949,0 C5.12005642,0 2.19277487,1.59253333 0.5,4 L2.66599285,4 C4.08708425,2.52746667 6.15159111,1.6 8.45011949,1.6 C9.50839128,1.6 10.5157763,1.79866667 11.4351877,2.1544 L9.88759815,4 L14.2342461,4 L16.400239,4 L16.5,4 L16.3358399,3.9144 Z" id="Fill-35" fill="#00AA84"></path>
            </g>
        </g>
    </g>
</svg>