<svg xmlns="http://www.w3.org/2000/svg" width="35" height="34" viewBox="0 0 35 34">
    <g fill="none" fill-rule="evenodd">
        <path fill="#151E26" d="M0 0H375V812H0z" transform="translate(-198 -411)"/>
        <path fill="#21303D" d="M17 400h341c1.105 0 2 .895 2 2v53H15v-53c0-1.105.895-2 2-2z" transform="translate(-198 -411)"/>
        <g fill-rule="nonzero">
            <path fill="#6D66FF" d="M17.626 5.338c2.905 3.614 4.855 8.355 4.83 12.495l-9.723-5.617 4.893-6.878z" transform="translate(-198 -411) translate(203.5 415)"/>
            <path fill="#2622DD" d="M17.626 5.338l1.382-.803c2.906 3.617 4.853 8.357 4.84 12.495l-1.38.806c.013-4.14-1.937-8.881-4.842-12.498z" transform="translate(-198 -411) translate(203.5 415)"/>
            <path fill="#2622DD" d="M17.626 5.338L19.008 4.535 19.148 4.71 17.765 5.516 17.626 5.338M17.765 5.516l1.383-.803c.14.169.278.35.412.54l-1.38.804c-.135-.183-.275-.363-.415-.541m.415.541l1.38-.803c.196.254.386.534.572.806l-1.383.803c-.183-.272-.373-.542-.57-.806M18.75 6.863l1.382-.803c.295.44.577.887.844 1.347l-1.38.8c-.255-.457-.55-.907-.847-1.344m.847 1.344l1.38-.8c.152.254.302.526.445.795l-1.383.804c-.143-.27-.29-.535-.442-.799" transform="translate(-198 -411) translate(203.5 415)"/>
            <path fill="#2622DD" d="M20.038 9.006l1.383-.804c.099.189.198.38.292.57l-1.38.803c-.097-.19-.193-.381-.295-.57m.295.57l1.38-.803c.084.165.163.333.254.508l-1.38.803-.242-.508" transform="translate(-198 -411) translate(203.5 415)"/>
            <path fill="#2622DD" d="M20.574 10.076l1.38-.803c.073.155.144.31.214.465l-1.383.803c-.068-.155-.14-.31-.21-.465" transform="translate(-198 -411) translate(203.5 415)"/>
            <path fill="#2622DD" d="M20.785 10.54l1.383-.802c.07.154.135.309.198.465l-1.38.803c-.066-.155-.132-.31-.2-.465m.2.465l1.38-.803c.064.155.127.31.188.468l-1.382.8c-.059-.155-.123-.31-.186-.465" transform="translate(-198 -411) translate(203.5 415)"/>
            <path fill="#2622DD" d="M21.172 11.471l1.382-.795c.061.157.122.317.18.477l-1.382.793c-.056-.16-.117-.32-.18-.48" transform="translate(-198 -411) translate(203.5 415)"/>
            <path fill="#2622DD" d="M21.352 11.946l1.383-.803c.058.165.117.33.173.509l-1.383.803c-.056-.165-.112-.33-.173-.496" transform="translate(-198 -411) translate(203.5 415)"/>
            <path fill="#2622DD" d="M21.525 12.455l1.375-.811c.056.168.11.336.16.508l-1.373.811c-.05-.168-.106-.335-.162-.508M21.687 12.963l1.38-.8c.054.17.105.34.15.508l-1.38.8c-.048-.17-.096-.34-.15-.508" transform="translate(-198 -411) translate(203.5 415)"/>
            <path fill="#2622DD" d="M21.837 13.472l1.38-.804c.048.17.094.34.138.509l-1.383.803c-.04-.173-.086-.346-.135-.508M21.972 13.98l1.383-.803.12.508-1.383.803c-.036-.17-.077-.34-.12-.508m.12.508l1.382-.803c.036.168.072.336.102.508l-1.383.804c-.03-.168-.063-.336-.101-.509" transform="translate(-198 -411) translate(203.5 415)"/>
            <path fill="#2622DD" d="M22.193 14.997l1.383-.804c.03.166.059.33.086.496l-1.382.8c-.026-.162-.054-.327-.087-.492M22.28 15.49l1.382-.8c.026.162.049.322.07.485l-1.384.803c-.02-.17-.043-.332-.068-.488" transform="translate(-198 -411) translate(203.5 415)"/>
            <path fill="#2622DD" d="M22.348 15.978l1.383-.803c.02.16.038.317.053.477l-1.392.801c-.016-.157-.033-.315-.054-.475" transform="translate(-198 -411) translate(203.5 415)"/>
            <path fill="#2622DD" d="M22.392 16.453l1.382-.8c.016.157.028.315.036.47l-1.38.803c-.01-.154-.023-.312-.038-.473m.048.473l1.38-.803c0 .157.018.315.023.47l-1.38.803c0-.155 0-.313-.023-.47m.023.47l1.38-.803v.44l-1.375.803v-.44" transform="translate(-198 -411) translate(203.5 415)"/>
            <path fill="#FFE088" d="M9.759 13.324L11.139 12.521 15.979 25.014 14.596 25.817z" transform="translate(-198 -411) translate(203.5 415)"/>
            <path fill="#FFB845" d="M2.863 1.459L4.246.656c1.779-1.017 4.219-.882 6.926.678l-1.383.804C7.085.577 4.632.432 2.863 1.459z" transform="translate(-198 -411) translate(203.5 415)"/>
            <path fill="#FFB845" d="M2.863 1.459L4.246.656c.25-.146.514-.268.788-.364l-1.383.804c-.274.096-.537.217-.788.363" transform="translate(-198 -411) translate(203.5 415)"/>
            <path fill="#FFB845" d="M3.65 1.096L5.035.292c.221-.077.448-.14.678-.188L4.345.907c-.231.047-.46.11-.681.189" transform="translate(-198 -411) translate(203.5 415)"/>
            <path fill="#FFB845" d="M4.345.907L5.712.104c.183-.035.371-.063.562-.081L4.891.826c-.187.018-.374.045-.559.081" transform="translate(-198 -411) translate(203.5 415)"/>
            <path fill="#FFB845" d="M4.891.826L6.274.023C6.444.008 6.613 0 6.782 0L5.397.803c-.173 0-.34 0-.508.023" transform="translate(-198 -411) translate(203.5 415)"/>
            <path fill="#FFB845" d="M5.397.803L6.777 0c.15 0 .302.005.458.015l-1.38.803c-.156-.01-.309-.015-.458-.015" transform="translate(-198 -411) translate(203.5 415)"/>
            <path fill="#FFB845" d="M5.855.818l1.38-.803c.142 0 .287.026.434.043L6.287.862c-.145-.02-.29-.033-.432-.044" transform="translate(-198 -411) translate(203.5 415)"/>
            <path fill="#FFB845" d="M6.287.862L7.669.058c.14.02.283.044.425.072l-1.38.803C6.569.905 6.426.882 6.287.862" transform="translate(-198 -411) translate(203.5 415)"/>
            <path fill="#FFB845" d="M6.714.933L8.094.13c.132.025.254.056.399.089l-1.38.798c-.135-.033-.267-.064-.4-.09M7.113 1.017l1.38-.798c.135.033.254.068.402.111l-1.38.801c-.135-.04-.27-.076-.402-.11" transform="translate(-198 -411) translate(203.5 415)"/>
            <path fill="#FFB845" d="M7.514 1.131l1.38-.8c.13.038.255.08.392.127l-1.383.813c-.13-.048-.254-.09-.389-.13" transform="translate(-198 -411) translate(203.5 415)"/>
            <path fill="#FFB845" d="M7.903 1.27L9.286.459c.13.045.254.094.391.147l-1.38.803c-.132-.053-.254-.102-.394-.147" transform="translate(-198 -411) translate(203.5 415)"/>
            <path fill="#FFB845" d="M8.297 1.408L9.683.605c.13.05.254.107.391.165l-1.388.803c-.13-.058-.254-.114-.389-.165" transform="translate(-198 -411) translate(203.5 415)"/>
            <path fill="#FFB845" d="M8.686 1.573l1.383-.81c.13.058.254.119.394.185l-1.383.81c-.132-.065-.254-.126-.394-.185m.394.186l1.383-.803.399.206-1.383.803c-.132-.071-.267-.14-.399-.206M9.479 1.965L10.862 1.162 11.172 1.334 9.789 2.138 9.479 1.965" transform="translate(-198 -411) translate(203.5 415)"/>
            <path fill="#FFDF5A" d="M9.79 2.138c1.87 1.131 3.518 2.596 4.862 4.32l-4.893 6.866 4.83 12.493c-1.434.125-3.097-.285-4.87-1.309C4.344 21.405.005 13.881.023 7.704c.017-6.176 4.39-8.67 9.765-5.566z" transform="translate(-198 -411) translate(203.5 415)"/>
            <path fill="#FFB845" d="M9.79 2.138l1.382-.804c1.871 1.128 3.52 2.59 4.865 4.311l-1.38.801c-1.347-1.72-2.996-3.18-4.868-4.308z" transform="translate(-198 -411) translate(203.5 415)"/>
            <path fill="#FFB845" d="M9.789 2.138L11.172 1.334 11.266 1.39 9.883 2.194 9.789 2.138" transform="translate(-198 -411) translate(203.5 415)"/>
            <path fill="#FFB845" d="M9.883 2.194l1.383-.804c.135.082.272.163.407.255l-1.383.798c-.135-.087-.27-.17-.407-.255" transform="translate(-198 -411) translate(203.5 415)"/>
            <path fill="#FFB845" d="M10.29 2.443l1.383-.804c.137.09.274.178.412.272l-1.386.804c-.137-.094-.274-.186-.414-.272" transform="translate(-198 -411) translate(203.5 415)"/>
            <path fill="#FFB845" d="M10.7 2.715l1.38-.804c.142.097.282.196.419.3l-1.38.801-.42-.297m.425.297l1.38-.8c.145.104.287.213.427.325l-1.38.803-.427-.328m.427.328l1.38-.798c.147.114.29.231.435.353l-1.383.803c-.142-.122-.287-.239-.432-.353" transform="translate(-198 -411) translate(203.5 415)"/>
            <path fill="#FFB845" d="M11.983 3.693l1.383-.803c.145.122.29.254.432.379l-1.38.798c-.143-.13-.288-.254-.435-.379" transform="translate(-198 -411) translate(203.5 415)"/>
            <path fill="#FFB845" d="M12.418 4.067l1.38-.803c.145.13.287.254.43.396l-1.383.803c-.14-.133-.282-.266-.427-.396" transform="translate(-198 -411) translate(203.5 415)"/>
            <path fill="#FFB845" d="M12.845 4.468l1.382-.803c.14.148.285.272.415.402l-1.383.803c-.137-.137-.275-.274-.414-.41m.414.418l1.383-.811c.132.137.254.274.396.417l-1.383.803c-.13-.142-.254-.28-.396-.417m.396.425l1.383-.804c.127.138.254.28.379.422l-1.38.804c-.125-.145-.255-.285-.382-.422M14.037 5.717l1.38-.804c.127.143.251.288.374.435l-1.383.803c-.122-.147-.254-.292-.371-.434" transform="translate(-198 -411) translate(203.5 415)"/>
            <path fill="#FFB845" d="M14.408 6.151l1.375-.813c.081.099.163.196.241.297l-1.38.8-.254-.294" transform="translate(-198 -411) translate(203.5 415)"/>
            <path fill="#FF7517" d="M14.652 6.446L16.032 5.645 11.139 12.521 9.759 13.324 14.652 6.446z" transform="translate(-198 -411) translate(203.5 415)"/>
            <path fill="#76C8FF" d="M9.805 13.28l9.735 5.62c0 4.141-1.983 6.622-4.898 6.876L9.805 13.281z" transform="translate(-198 -411) translate(203.5 415)"/>
            <path fill="#2789FF" d="M9.805 13.281L11.185 12.478 20.92 18.098 19.54 18.901z" transform="translate(-198 -411) translate(203.5 415)"/>
            <path fill="#005CE2" d="M18.07 24.338l-1.38.803c1.747-1.017 2.83-3.172 2.84-6.24l1.38-.8c.002 3.065-1.083 5.223-2.84 6.237z" transform="translate(-198 -411) translate(203.5 415)"/>
            <path fill="#005CE2" d="M19.54 18.9l1.38-.8v.026l-1.383.803V18.9m0 .028l1.383-.803v.467l-1.383.804v-.468" transform="translate(-198 -411) translate(203.5 415)"/>
            <path fill="#005CE2" d="M19.527 19.397l1.383-.804c0 .158-.018.31-.03.463l-1.381.803c0-.152.023-.305.028-.462m-.028.462l1.38-.795c0 .157-.028.312-.046.462l-1.382.808c.02-.15.035-.305.048-.462m-.048.462l1.382-.803c-.02.16-.043.315-.07.468l-1.38.8c.024-.15.047-.305.068-.465" transform="translate(-198 -411) translate(203.5 415)"/>
            <path fill="#005CE2" d="M19.382 20.787l1.38-.8c-.028.16-.058.317-.094.472l-1.383.803c.036-.155.07-.312.097-.475m-.097.475l1.383-.803c-.038.168-.081.33-.127.49l-1.383.804c.049-.16.09-.323.127-.49M19.158 21.753l1.383-.803c-.053.177-.11.35-.17.508l-1.383.803c.061-.168.12-.34.17-.508m-.17.518l1.383-.803c-.074.196-.153.384-.24.564l-1.382.804c.087-.18.165-.369.24-.565M18.75 22.836l1.382-.804c-.106.224-.226.442-.358.651l-1.383.803c.132-.21.251-.427.358-.65" transform="translate(-198 -411) translate(203.5 415)"/>
            <path fill="#005CE2" d="M18.39 23.486l1.384-.803c-.427.68-1.01 1.248-1.703 1.655l-1.38.803c.688-.407 1.268-.975 1.69-1.655" transform="translate(-198 -411) translate(203.5 415)"/>
        </g>
    </g>
</svg>
