<svg xmlns="http://www.w3.org/2000/svg" width="34" height="34" viewBox="0 0 34 34">
    <g fill="none" fill-rule="evenodd">
        <path fill="#151E26" d="M0 0H375V812H0z" transform="translate(-25 -471)"/>
        <path fill="#21303D" d="M15 460h345v53c0 1.105-.895 2-2 2H17c-1.105 0-2-.895-2-2v-53z" transform="translate(-25 -471)"/>
        <g fill-rule="nonzero">
            <path fill="#76C8FF" d="M0.013 7.844L2.431 6.44 5.371 4.762 2.952 6.169z" transform="translate(-25 -471) translate(31 475)"/>
            <path fill="#005CE2" d="M17.088 21.075L19.504 19.671 19.491 24.433 17.075 25.837z" transform="translate(-25 -471) translate(31 475)"/>
            <path fill="#2789FF" d="M2.968 1.404L5.384 0l4.145 2.394-2.416 1.404-4.145-2.394zM17.107 14.34l2.416-1.407 2.923 5.06-2.419 1.407-2.92-5.06z" transform="translate(-25 -471) translate(31 475)"/>
            <path fill="#76C8FF" d="M7.113 3.798L9.529 2.394 12.471 0.717 10.052 2.123z" transform="translate(-25 -471) translate(31 475)"/>
            <path fill="#005CE2" d="M10.052 2.123L12.471.717l2.92 5.06-2.416 1.406-2.923-5.06zm7.068 7.452l2.416-1.404-.013 4.762-2.416 1.407.013-4.765z" transform="translate(-25 -471) translate(31 475)"/>
            <path fill="#2789FF" d="M12.975 7.183L15.391 5.777 19.536 8.171 17.12 9.575 12.975 7.183z" transform="translate(-25 -471) translate(31 475)"/>
            <path fill="#76C8FF" d="M10.052 2.123L12.975 7.183 17.12 9.575 17.107 14.34 20.027 19.4 17.088 21.075 17.075 25.837 12.93 23.446 9.988 25.121 7.064 20.06 2.92 17.666 2.933 12.904 0.013 7.844 2.952 6.169 2.968 1.404 7.113 3.798z" transform="translate(-25 -471) translate(31 475)"/>
            <path fill="#FFB845" d="M6.871 11.653L7.572 11.248 9.872 15.231 9.172 15.639z" transform="translate(-25 -471) translate(31 475)"/>
            <path fill="#FFB845" d="M6.187 11.25l.7-.408c.115-.05.248-.037.35.038.145.09.265.217.348.368l-.7.405c-.086-.155-.211-.286-.363-.379-.1-.064-.227-.073-.335-.024z" transform="translate(-25 -471) translate(31 475)"/>
            <path fill="#FFB845" d="M6.187 11.25l.7-.408c.012-.007.025-.012.038-.016l-.7.406-.038.018" transform="translate(-25 -471) translate(31 475)"/>
            <path fill="#FFB845" d="M6.211 11.232L6.911 10.826 6.946 10.826 6.246 11.234 6.211 11.234" transform="translate(-25 -471) translate(31 475)"/>
            <path fill="#FFB845" d="M6.246 11.223L6.946 10.815 6.976 10.815 6.273 11.221 6.246 11.221" transform="translate(-25 -471) translate(31 475)"/>
            <path fill="#FFB845" d="M6.273 11.221L6.976 10.813 6.992 10.813 6.291 11.221 6.265 11.221" transform="translate(-25 -471) translate(31 475)"/>
            <path fill="#FFB845" d="M6.3 11.218l.692-.408h.024l-.7.405H6.29m.033.003l.7-.405h.022l-.701.408h-.021" transform="translate(-25 -471) translate(31 475)"/>
            <path fill="#FFB845" d="M6.345 11.22l.7-.407h.022l-.7.408h-.022m.022.005l.7-.408h.022l-.704.408h-.018" transform="translate(-25 -471) translate(31 475)"/>
            <path fill="#FFB845" d="M6.385 11.229l.704-.408h.018l-.7.405h-.022m.022.008l.7-.405h.022l-.703.408h-.02m.02.005l.703-.408h.019l-.693.416h-.021" transform="translate(-25 -471) translate(31 475)"/>
            <path fill="#FFB845" d="M6.455 11.25L7.156 10.842 7.175 10.842 6.455 11.258 6.436 11.258" transform="translate(-25 -471) translate(31 475)"/>
            <path fill="#FFB845" d="M6.455 11.258l.7-.408h.022l-.69.424h-.021m.021 0l.7-.408h.02l-.7.408h-.02" transform="translate(-25 -471) translate(31 475)"/>
            <path fill="#FFB845" d="M6.506 11.274l.7-.408h.017l-.7.406h-.017m.022.016l.7-.405h.022l-.704.418-.018-.013m.018.013l.714-.408.02.014-.701.408h-.022" transform="translate(-25 -471) translate(31 475)"/>
            <path fill="#FFB845" d="M6.568 11.315L7.26 10.907 7.282 10.923 6.589 11.331 6.568 11.315M6.589 11.331L7.29 10.923 7.314 10.939 6.611 11.347 6.589 11.331" transform="translate(-25 -471) translate(31 475)"/>
            <path fill="#FFB845" d="M6.61 11.347l.704-.408c.006.008.013.014.022.019l-.701.408-.024-.02m.024.02l.7-.408.022.018-.7.409-.022-.02" transform="translate(-25 -471) translate(31 475)"/>
            <path fill="#FFB845" d="M6.656 11.385l.701-.409.022.022-.701.408-.022-.021m.022.021l.7-.4.022.022-.7.405-.022-.019" transform="translate(-25 -471) translate(31 475)"/>
            <path fill="#FFB845" d="M6.699 11.425L7.4 11.019 7.419 11.038 6.724 11.446 6.705 11.425M6.724 11.446L7.424 11.038 7.446 11.06 6.742 11.468 6.724 11.446" transform="translate(-25 -471) translate(31 475)"/>
            <path fill="#FFB845" d="M6.737 11.468L7.44 11.06 7.456 11.081 6.756 11.489 6.737 11.468" transform="translate(-25 -471) translate(31 475)"/>
            <path fill="#FFB845" d="M6.756 11.489L7.456 11.081 7.475 11.105 6.775 11.513 6.756 11.489" transform="translate(-25 -471) translate(31 475)"/>
            <path fill="#FFB845" d="M6.775 11.513L7.475 11.105 7.497 11.132 6.796 11.543 6.775 11.516M6.796 11.543L7.497 11.135 7.526 11.175 6.823 11.583 6.796 11.543" transform="translate(-25 -471) translate(31 475)"/>
            <path fill="#FFB845" d="M6.823 11.58L7.529 11.172 7.572 11.24 6.871 11.648 6.826 11.58" transform="translate(-25 -471) translate(31 475)"/>
            <path fill="#FFB845" d="M6.868 11.648L7.569 11.24 6.868 11.645" transform="translate(-25 -471) translate(31 475)"/>
            <path fill="#FF7517" d="M13.585 13.124l.703-.408c.114-.05.247-.038.35.035l-.701.403c-.104-.072-.238-.083-.352-.03z" transform="translate(-25 -471) translate(31 475)"/>
            <path fill="#FF7517" d="M13.585 13.124l.703-.408c.012-.007.025-.012.038-.016l-.7.405-.041.019m.04-.019l.7-.405h.036l-.701.408h-.035" transform="translate(-25 -471) translate(31 475)"/>
            <path fill="#FF7517" d="M13.66 13.097L14.361 12.689 14.387 12.689 13.687 13.094 13.66 13.094" transform="translate(-25 -471) translate(31 475)"/>
            <path fill="#FF7517" d="M13.687 13.092L14.387 12.686 14.414 12.686 13.703 13.092 13.676 13.092" transform="translate(-25 -471) translate(31 475)"/>
            <path fill="#FF7517" d="M13.703 13.092l.7-.408h.022l-.7.408h-.022m.032 0l.7-.408h.025l-.703.41h-.022" transform="translate(-25 -471) translate(31 475)"/>
            <path fill="#FF7517" d="M13.757 13.094l.703-.408h.021l-.703.406h-.021m.021.005l.703-.405h.027l-.7.408h-.022" transform="translate(-25 -471) translate(31 475)"/>
            <path fill="#FF7517" d="M13.8 13.103l.708-.408h.022l-.7.408h-.022m.013.005l.7-.408h.02l-.701.408h-.019m.019.008l.7-.408h.022l-.7.405h-.022m.021.008l.701-.405h.019l-.7.408h-.02m.02.008l.7-.408h.021l-.703.43h-.019m.019 0l.703-.408h.019l-.7.408h-.022" transform="translate(-25 -471) translate(31 475)"/>
            <path fill="#FF7517" d="M13.92 13.154L14.621 12.746 14.637 12.746 13.937 13.154 13.92 13.154" transform="translate(-25 -471) translate(31 475)"/>
            <path fill="#FFDF5A" d="M13.937 13.154c.145.09.265.217.348.367.191.333.191.693 0 .806l-4.767 2.719c-.115.051-.248.037-.349-.038-.146-.089-.267-.215-.349-.365l-2.65-4.59c-.193-.333-.19-.693 0-.805.115-.051.248-.038.35.035.145.091.265.217.348.367l2.301 3.987 4.413-2.516c.116-.053.25-.041.355.033z" transform="translate(-25 -471) translate(31 475)"/>
            <path fill="#FF7517" d="M13.937 13.154l.7-.408c.145.091.265.217.35.367.192.336.19.693 0 .806l-.702.405c.194-.11.194-.47 0-.805-.083-.15-.203-.275-.348-.365z" transform="translate(-25 -471) translate(31 475)"/>
            <path fill="#FF7517" d="M13.937 13.154l.7-.408-.698.408m0 0l.704-.408.018.013-.69.416h-.021m.021 0l.701-.408h.022l-.723.421v-.013m0 .013l.701-.408.022.017-.701.408-.022-.017m.033.017l.7-.408.022.016-.7.408-.022-.016m.021.016l.7-.408.022.018-.7.408c-.006-.007-.014-.014-.022-.018" transform="translate(-25 -471) translate(31 475)"/>
            <path fill="#FF7517" d="M14.047 13.239L14.747 12.831 14.771 12.85 14.071 13.258 14.047 13.239M14.071 13.258L14.777 12.85 14.798 12.872 14.098 13.28 14.076 13.258" transform="translate(-25 -471) translate(31 475)"/>
            <path fill="#FF7517" d="M14.092 13.28l.7-.395c.009.007.016.014.022.022l-.7.405-.022-.019" transform="translate(-25 -471) translate(31 475)"/>
            <path fill="#FF7517" d="M14.114 13.298l.7-.413.02.019-.702.416-.018-.022m.018.022l.701-.408.019.021-.7.408-.02-.021m.02.021l.7-.408.019.025-.7.405-.02-.022" transform="translate(-25 -471) translate(31 475)"/>
            <path fill="#FF7517" d="M14.17 13.363l.7-.405c.008.005.015.013.02.021l-.701.408-.019-.024" transform="translate(-25 -471) translate(31 475)"/>
            <path fill="#FF7517" d="M14.189 13.387L14.889 12.979 14.911 13.006 14.21 13.422 14.189 13.395" transform="translate(-25 -471) translate(31 475)"/>
            <path fill="#FF7517" d="M14.21 13.422L14.911 13.014 14.94 13.054 14.24 13.454 14.213 13.414" transform="translate(-25 -471) translate(31 475)"/>
            <path fill="#FF7517" d="M14.24 13.454L14.943 13.046 14.986 13.116 14.285 13.521 14.24 13.454" transform="translate(-25 -471) translate(31 475)"/>
            <path fill="#FF7517" d="M14.283 13.521l.7-.405c0 .013 0 .024.02.035l-.701.408s-.014-.022-.02-.035m.022.038l.7-.408.017.032-.7.408-.017-.032" transform="translate(-25 -471) translate(31 475)"/>
            <path fill="#FF7517" d="M14.32 13.594l.701-.408c.003.008.008.016.013.024l-.703.408v-.024M14.331 13.618l.714-.408v.024l-.703.408v-.024M14.342 13.642l.703-.408v.024l-.7.408v-.024m.008.024l.692-.408v.024l-.682.408v-.024m0 .024l.701-.408v.025l-.7.408v-.025m.007.025l.701-.408v.024l-.703.408v-.024m.01.024l.704-.408v.027l-.704.405v-.024m.008.024l.704-.405v.024l-.7.408v-.027m.005.027l.7-.408v.027l-.7.408v-.027m.008.027l.7-.395v.027l-.7.408v-.027" transform="translate(-25 -471) translate(31 475)"/>
            <path fill="#FF7517" d="M14.409 13.843l.7-.408c.002.008.002.017 0 .025l-.7.408v-.025m.005.025l.701-.408v.026l-.7.408v-.026m.005.026l.7-.408v.025l-.7.408v-.025m.002.025l.701-.408v.024l-.7.408v-.024" transform="translate(-25 -471) translate(31 475)"/>
            <path fill="#FF7517" d="M14.425 13.943L15.126 13.535 15.126 13.559 14.428 13.959 14.428 13.935" transform="translate(-25 -471) translate(31 475)"/>
            <path fill="#FF7517" d="M14.428 13.959l.7-.408v.024l-.7.416v-.032m0 .032l.7-.408v.024l-.7.406v-.022m0 .022l.7-.406v.022l-.7.408v-.024" transform="translate(-25 -471) translate(31 475)"/>
            <path fill="#FF7517" d="M14.428 14.037l.7-.408v.024l-.703.408v-.024" transform="translate(-25 -471) translate(31 475)"/>
            <path fill="#FF7517" d="M14.425 14.06l.703-.407v.024l-.7.408v-.024" transform="translate(-25 -471) translate(31 475)"/>
            <path fill="#FF7517" d="M14.425 14.085L15.126 13.69 15.126 13.715 14.425 14.123 14.425 14.098" transform="translate(-25 -471) translate(31 475)"/>
            <path fill="#FF7517" d="M14.42 14.11l.7-.42v.025l-.703.408v-.025m-.003.035l.704-.408v.024l-.701.409v-.025" transform="translate(-25 -471) translate(31 475)"/>
            <path fill="#FF7517" d="M14.409 14.158L15.11 13.749 15.11 13.776 14.401 14.184 14.401 14.158" transform="translate(-25 -471) translate(31 475)"/>
            <path fill="#FF7517" d="M14.4 14.184l.702-.408c-.004.01-.008.02-.014.03l-.7.421.013-.03m-.014.03l.701-.408c-.005.012-.011.022-.019.032l-.7.409c.007-.01.013-.021.018-.033" transform="translate(-25 -471) translate(31 475)"/>
            <path fill="#FF7517" d="M14.369 14.246l.7-.408c-.021.035-.05.064-.086.086l-.7.405c.035-.02.065-.048.086-.083" transform="translate(-25 -471) translate(31 475)"/>
        </g>
    </g>
</svg>
